<?xml version="1.0" encoding="UTF-8"?>
<!DOCTYPE svg  PUBLIC '-//W3C//DTD SVG 1.1//EN'  'http://www.w3.org/Graphics/SVG/1.1/DTD/svg11.dtd'>
<svg width="1362pt" height="784pt" version="1.1" viewBox="0 0 1362 784" xmlns="http://www.w3.org/2000/svg">
<path d="m564.16 0h6.65c37.28 0.89 73.17 22.08 91.95 54.28 19.93 33 20.56 76.55 1.49 110.07-15.63 28.39-44.3 48.99-76.12 55.02 14.26-30.47 15.9-66.97 2.54-98.05-12.71-31.12-39.32-56.04-71.08-66.98-13.93-4.86-28.78-7.11-43.52-6.49 5.38-7.45 11.43-14.43 18.37-20.46 19.12-16.88 44.24-26.67 69.72-27.39z" fill="#e9510e"/>
<path d="m476.07 47.85c14.74-0.62 29.59 1.63 43.52 6.49 31.76 10.94 58.37 35.86 71.08 66.98 13.36 31.08 11.72 67.58-2.54 98.05-11.94 2.46-24.31 2.45-36.36 0.91-25.91-3.55-50.31-16.75-67.55-36.39-16.36-18.39-26.3-42.4-27.54-67-1.44-24.29 5.37-49.11 19.39-69.04z" fill="#b23c0a"/>
<g fill="#151701">
<path d="m111.36 183.45c5.66-1.64 11.91-1.47 17.4 0.74 9.34 3.84 15.94 13.63 15.42 23.8 0.16 12.92-11.14 24.82-24.12 24.95-13.73 0.97-26.67-11.2-26.52-24.96-0.57-11.03 7.42-21.37 17.82-24.53z"/>
<path d="m6.59 209.57c14.46 0.01 28.92-0.04 43.38 0.03-0.06 82.41 0.03 164.82-0.04 247.23-14.42 0-28.84-0.07-43.26 0.03-0.21-82.42-0.06-164.86-0.08-247.29z"/>
<path d="m97 264h44c0.01 64.16-0.01 128.31 0 192.46-14.66 0.06-29.33 0.03-44 0.02 0-64.16-0.01-128.32 0-192.48z"/>
<path d="m193.2 298.17c17.61-21.47 45.11-34.06 72.79-34.17 33.08 0.01 66.17-0.01 99.25 0 0.01 10 0.01 20 0 30-6.75-0.03-13.5 0.05-20.24-0.02-3.84 0-7.54-1.4-11.37-1.24 13.04 12.38 23.05 28.37 26.5 46.17 3.84 19.91 1.07 41.41-9.31 58.99-8.91 15.31-23.18 28.09-40.55 32.67-0.05 0.54-0.14 1.62-0.18 2.16 7.3 0.08 14.68 0.57 21.74 2.55 11.49 3.2 22.96 6.45 34.44 9.63 0.11 22.52-0.08 45.04 0.1 67.56-62.06 0.36-124.14 0-186.2 0.18-0.13-17.9-0.01-35.81-0.06-53.71 14.1-0.1 28.2-0.06 42.31-0.02 0.01 5.89 0.01 11.79 0 17.69 37.03-0.02 74.07 0.18 111.09-0.1-0.04-2.25-0.08-4.5-0.16-6.74-9.15-0.42-17.62-4.11-26.38-6.37-23.67-6.69-47.36-13.33-71.03-20.06-15.6-4.54-30.07-13.35-40.6-25.8-14.76-17.23-22.92-39.88-22.53-62.57-0.09-20.56 7.23-41.01 20.39-56.8m66.5 7.62c-11.98 1.52-23.47 7.32-31.28 16.61-8.51 9.65-12.11 22.84-11.51 35.54 0.23 12.57 5.31 25.02 14.32 33.85 18.92 19.69 54.27 19.2 72.92-0.63 19.42-19.34 18.57-55.02-2.19-73.08-11.17-10.44-27.3-14.64-42.26-12.29z"/>
<path d="m559.23 264.03c14.26-0.07 28.51-0.01 42.77-0.03v193.24c-14.26-0.05-28.52 0.12-42.78-0.08 0.07-11.36-0.01-22.73 0.05-34.09 0.02-1.37-0.15-2.71-0.52-4.01-2.52 2.54-3.85 5.94-5.98 8.78-8.87 13.21-21.63 23.93-36.64 29.42-14.96 5.45-31.37 6.38-47.04 4.02-19.72-3.01-38.06-13.12-51.78-27.49-15.11-15.94-24.6-36.94-27.24-58.69-2.52-20.62 0.18-42.07 9.02-60.96 6.93-15.19 17.73-28.57 31.2-38.44 1.07 0.59 2.16 1.16 3.27 1.71 31.8 13.59 69.75 12.52 100.35-3.81 8.61 6.49 16.2 14.46 21.43 23.94 1.07 1.85 1.79 3.99 3.52 5.37 0.27-1.3 0.41-2.6 0.41-3.92-0.06-11.65 0.01-23.3-0.04-34.96m-76.74 36.61c-8.09 1.37-15.89 4.5-22.63 9.21-12.13 8.33-20.23 21.8-23.03 36.15-3.15 16.16-1.14 33.67 7.32 47.97 7.06 12.27 19.16 21.45 32.84 25.09 10.15 2.67 20.96 2.82 31.21 0.61 15.01-3.23 28.52-12.93 36.14-26.29 8.5-14.39 10.44-32.06 6.97-48.26-3.21-15.02-12.46-28.82-25.67-36.81-12.73-7.97-28.48-10.07-43.15-7.67z"/>
</g>
<path d="m430.29 275.7c15.56-11.88 35.28-17.56 54.73-17.59 17.32 0.15 34.95 4.94 48.89 15.49-30.6 16.33-68.55 17.4-100.35 3.81-1.11-0.55-2.2-1.12-3.27-1.71z" fill="#4b413d"/>
<g fill="#006eb9">
<path d="m643.02 507.02c13.06 0.03 26.12 0.02 39.18 0.01 0.13 91.07 0.1 182.14 0.02 273.21-13.08 0.05-26.15 0.03-39.22 0.01v-86.21c-0.09-10.71 0.67-21.61-2.08-32.08-4.58-19.33-18.36-36.14-36.32-44.59-12.48-6.13-26.84-7.82-40.51-5.78-15.25 2.42-29.45 10.36-39.71 21.86-8.79 9.93-14.76 22.43-16.49 35.6-2.64 17.53 2.14 36.02 12.86 50.14 9.45 12.76 23.58 21.98 39.08 25.48 16.69 3.82 34.84 1.27 49.59-7.55 6.84 10.33 13.02 21.11 19.73 31.54-12.17 6.79-25.41 11.81-39.28 13.59-32.94 5.18-67.9-7.12-90.68-31.4-14.23-14.75-23.93-33.83-27.43-54.03-3.64-20.09-1.11-41.23 7.06-59.95 12.29-28.58 37.89-51.04 67.94-59.24 21.93-6.12 45.87-4.95 67.06 3.44 10.61 4.07 20.22 10.24 29.16 17.17 0.06-30.41-0.03-60.81 0.04-91.22z"/>
<path d="m77.29 577.26c24.78-6.72 52.03-4.14 74.96 7.47 29.23 14.4 50.99 43.24 56.18 75.47 0.25 11.44 0.15 22.9 0.05 34.34-37.55-0.17-75.11 0.05-112.66-0.11-0.04-12.26-0.05-24.53 0.01-36.8 24.66-0.1 49.32-0.02 73.98-0.03-7.68-24.86-30.95-43.86-56.8-46.58-14.32-1.73-29.18 1.19-41.69 8.4-16.59 9.41-29 26.02-32.87 44.75-2.81 12.72-1.73 26.25 2.96 38.4 5.89 15.57 17.8 28.72 32.62 36.27 16.35 8.42 36.17 9.63 53.49 3.56 13.5-4.57 25.02-13.87 33.4-25.28 9.8 7.39 19.42 15.01 29.28 22.31-19.44 27.78-53.25 44.69-87.14 43.65-34.85-0.26-68.73-19.53-87.09-49.11-9.2-14.17-14.11-30.7-15.97-47.4v-16.26c1.52-12.76 4.41-25.49 10.17-37.06 12.91-27.18 38.05-48.2 67.12-55.99z"/>
<path d="m330.04 574.97c20.58-3.45 42.43-0.22 60.58 10.29 26.08 14.69 43.33 43.75 43.38 73.72-0.01 40.38 0.01 80.76-0.01 121.14-12.31 0.01-24.63 0.02-36.95-0.01-0.01-40.37-0.01-80.74 0-121.11-0.42-14.85-7.82-29.41-19.81-38.25-9.91-7.6-22.73-11.02-35.13-9.98-14.31 0.7-28.25 6.91-38.43 16.98-10.95 10.41-18.61 24.34-21.44 39.19-0.23 9.15 0.14 18.33-0.08 27.5-12.35 0.02-24.72 0.19-37.07-0.09 0.03-37.46 0-74.93 0.01-112.4 12.36-0.17 24.73-0.03 37.09-0.08 0.05 5.02 0.01 10.04 0 15.07 13.71-11.28 30.27-19.22 47.86-21.97z"/>
<path d="m793.99 577.26c29.31-8.05 62.01-2.7 87.08 14.56 23.01 15.62 39.57 40.73 44.02 68.25 0.22 11.45 0.09 22.92 0.15 34.37-37.55 0.13-75.09-0.04-112.64 0.09-0.24-12.33-0.33-24.68 0.04-37 24.45 0.18 48.9-0.07 73.34 0.12 0.04-2.66-1.31-5.02-2.32-7.39-6.33-14.02-17.63-25.71-31.42-32.52-14.78-7.46-32.3-9.17-48.26-4.9-16.56 4.37-31.22 15.34-40.18 29.91-7.1 11.31-10.66 24.8-10.06 38.14 0.42 17.42 8.22 34.48 20.89 46.4 15.12 14.93 37.6 21.61 58.47 17.96 17.76-2.85 34.05-13.33 44.26-28.1 10.06 7.2 19.75 14.92 29.53 22.48-15.57 21.7-39.68 37.09-66 41.77-26.13 5.18-54.05-0.73-76.34-15.16-20.14-13.01-35.66-33.07-42.94-55.94-6.88-21.32-6.58-44.88 0.72-66.06 10.97-32.3 38.67-58.24 71.66-66.98z"/>
<path d="m1006.4 580.51c11.92-5.73 25.42-7.69 38.55-6.62 21.46 0.95 42.78 10.94 55.77 28.31 7.72 10.22 13.75 22.23 15.51 35.01-12.39 2.83-24.59 6.51-37.05 8.89-0.6-11.98-7.21-23.66-17.55-29.86-7.37-4.44-16.16-5.88-24.65-5.64-11.08 0.59-21.15 6.99-28.19 15.29-4.12 5-7.63 10.76-8.98 17.17 38.28 14.17 76.6 28.23 114.86 42.44 2.41 4.7 2.4 10.38 2.82 15.58 1.24 22.15-7.17 44.76-23.04 60.33-11.73 11.9-27.7 19.28-44.23 21.24-18.66 1.96-38.42-1.27-54.25-11.77-15.24-10.13-26.03-26.08-31.48-43.4-0.88-3.02-1.91-6.07-1.82-9.24 12.19-2.67 24.09-6.52 36.24-9.37 1.24 10.63 5.81 21.17 13.96 28.3 7.4 6.41 17.4 9.39 27.11 8.93 17.8 0.47 36.74-10.99 40.87-29.03 0.03-1.66 1.6-4.54-0.9-5.02-38.94-14.4-77.91-28.72-116.83-43.17-0.06-7.29-0.89-14.56-0.73-21.85 0.62-28.08 18.57-54.8 44.01-66.52z"/>
<path d="m1210.6 584.48c21.82-10.94 47.53-13.67 71.24-8.01 15.84 3.66 30.66 11.29 43.13 21.69 0.08-6.71 0.01-13.42 0.04-20.12 12.32 0 24.64-0.02 36.96 0.01v202.06c-12.32 0.01-24.64 0.04-36.95-0.01-0.03-30.03-0.01-60.05-0.01-90.08-0.09-8.64 0.54-17.39-1.42-25.88-3.47-16.86-13.63-32.32-27.98-41.88-17.17-11.83-39.9-14.86-59.65-8.32-16.62 5.41-30.9 17.57-38.93 33.09-8.81 16.59-10.11 36.92-3.64 54.53 5.4 15 16.36 27.88 30.2 35.75 17.57 10.22 39.82 11.65 58.69 4.24 5.61-2.13 10.68-5.37 15.72-8.56 7.13 9.96 13.66 20.36 20.67 30.41-32.04 23.74-78.02 26.3-112.62 6.52-13.75-7.66-25.73-18.41-34.71-31.34-13.79-19.42-20.47-43.71-18.7-67.46 2.06-36.49 25.11-70.71 57.96-86.64z"/>
</g>
</svg>
